<?xml version="1.0" encoding="UTF-8" standalone="no"?>
<!DOCTYPE svg PUBLIC "-//W3C//DTD SVG 1.1//EN"
 "http://www.w3.org/Graphics/SVG/1.1/DTD/svg11.dtd">
<!-- Generated by graphviz version 14.1.2 (20260124.0452)
 -->
<!-- Title: phase_03_tasking Pages: 1 -->
<svg width="566pt" height="614pt"
 viewBox="0.00 0.00 566.00 614.00" xmlns="http://www.w3.org/2000/svg" xmlns:xlink="http://www.w3.org/1999/xlink">
<g id="graph0" class="graph" transform="scale(1 1) rotate(0) translate(21.6 592.32)">
<title>phase_03_tasking</title>
<polygon fill="white" stroke="none" points="-21.6,21.6 -21.6,-592.32 544,-592.32 544,21.6 -21.6,21.6"/>
<text xml:space="preserve" text-anchor="middle" x="261.2" y="-551.52" font-family="Helvetica,sans-Serif" font-size="16.00">Phase 3: Tasking u2014 PRD Decomposition</text>
<!-- prd -->
<g id="node1" class="node">
<title>prd</title>
<polygon fill="#fffacd" stroke="black" points="115.16,-543.97 40.13,-543.97 40.13,-507.97 121.16,-507.97 121.16,-537.97 115.16,-543.97"/>
<polyline fill="none" stroke="black" points="115.16,-543.97 115.16,-537.97"/>
<polyline fill="none" stroke="black" points="121.16,-537.97 115.16,-537.97"/>
<text xml:space="preserve" text-anchor="middle" x="80.64" y="-528.12" font-family="Helvetica,sans-Serif" font-size="8.00">docs/prd/PRD.md</text>
<text xml:space="preserve" text-anchor="middle" x="80.64" y="-518.37" font-family="Helvetica,sans-Serif" font-size="8.00">(from Phase 2)</text>
</g>
<!-- t301 -->
<g id="node2" class="node">
<title>t301</title>
<path fill="#add8e6" stroke="black" d="M135.78,-474.97C135.78,-474.97 25.5,-474.97 25.5,-474.97 19.5,-474.97 13.5,-468.97 13.5,-462.97 13.5,-462.97 13.5,-450.97 13.5,-450.97 13.5,-444.97 19.5,-438.97 25.5,-438.97 25.5,-438.97 135.78,-438.97 135.78,-438.97 141.78,-438.97 147.78,-444.97 147.78,-450.97 147.78,-450.97 147.78,-462.97 147.78,-462.97 147.78,-468.97 141.78,-474.97 135.78,-474.97"/>
<text xml:space="preserve" text-anchor="middle" x="80.64" y="-459.12" font-family="Helvetica,sans-Serif" font-size="8.00">301 &#160;Entry &amp; Init</text>
<text xml:space="preserve" text-anchor="middle" x="80.64" y="-449.37" font-family="Helvetica,sans-Serif" font-size="8.00">Validate PRD + Phase 2 closeout</text>
</g>
<!-- prd&#45;&gt;t301 -->
<g id="edge1" class="edge">
<title>prd&#45;&gt;t301</title>
<path fill="none" stroke="black" d="M80.64,-507.72C80.64,-500.43 80.64,-491.79 80.64,-483.77"/>
<polygon fill="black" stroke="black" points="83.09,-483.91 80.64,-476.91 78.19,-483.91 83.09,-483.91"/>
</g>
<!-- t302 -->
<g id="node3" class="node">
<title>t302</title>
<path fill="#add8e6" stroke="black" d="M149.28,-400.15C149.28,-400.15 12,-400.15 12,-400.15 6,-400.15 0,-394.15 0,-388.15 0,-388.15 0,-376.15 0,-376.15 0,-370.15 6,-364.15 12,-364.15 12,-364.15 149.28,-364.15 149.28,-364.15 155.28,-364.15 161.28,-370.15 161.28,-376.15 161.28,-376.15 161.28,-388.15 161.28,-388.15 161.28,-394.15 155.28,-400.15 149.28,-400.15"/>
<text xml:space="preserve" text-anchor="middle" x="80.64" y="-384.3" font-family="Helvetica,sans-Serif" font-size="8.00">302 &#160;Agent Selection</text>
<text xml:space="preserve" text-anchor="middle" x="80.64" y="-374.55" font-family="Helvetica,sans-Serif" font-size="8.00">Analyze PRD patterns: API, auth, DB, UI</text>
</g>
<!-- t301&#45;&gt;t302 -->
<g id="edge2" class="edge">
<title>t301&#45;&gt;t302</title>
<path fill="none" stroke="black" d="M80.64,-438.72C80.64,-429.8 80.64,-418.75 80.64,-408.85"/>
<polygon fill="black" stroke="black" points="83.09,-409.05 80.64,-402.05 78.19,-409.05 83.09,-409.05"/>
</g>
<!-- t303 -->
<g id="node4" class="node">
<title>t303</title>
<path fill="#add8e6" stroke="black" d="M217.66,-324.93C217.66,-324.93 109.62,-324.93 109.62,-324.93 103.62,-324.93 97.63,-318.93 97.63,-312.93 97.63,-312.93 97.63,-299.04 97.63,-299.04 97.63,-293.04 103.63,-287.04 109.63,-287.04 109.63,-287.04 217.66,-287.04 217.66,-287.04 223.66,-287.04 229.66,-293.04 229.66,-299.04 229.66,-299.04 229.66,-312.93 229.66,-312.93 229.66,-318.93 223.66,-324.93 217.66,-324.93"/>
<text xml:space="preserve" text-anchor="middle" x="163.64" y="-313.01" font-family="Helvetica,sans-Serif" font-size="8.00">303 &#160;Task Decomposition &#160;[opus]</text>
<text xml:space="preserve" text-anchor="middle" x="163.64" y="-303.26" font-family="Helvetica,sans-Serif" font-size="8.00">Per&#45;feature LLM decomposition</text>
<text xml:space="preserve" text-anchor="middle" x="163.64" y="-293.51" font-family="Helvetica,sans-Serif" font-size="8.00">Merge + renumber</text>
</g>
<!-- t302&#45;&gt;t303 -->
<g id="edge3" class="edge">
<title>t302&#45;&gt;t303</title>
<path fill="none" stroke="black" d="M99.89,-363.95C110.9,-354.11 124.88,-341.62 136.94,-330.85"/>
<polygon fill="black" stroke="black" points="138.33,-332.89 141.91,-326.4 135.06,-329.24 138.33,-332.89"/>
</g>
<!-- t304 -->
<g id="node5" class="node">
<title>t304</title>
<path fill="#add8e6" stroke="black" d="M365.4,-244.89C365.4,-244.89 261.88,-244.89 261.88,-244.89 255.87,-244.89 249.87,-238.89 249.87,-232.89 249.87,-232.89 249.87,-219 249.87,-219 249.87,-213 255.87,-207 261.88,-207 261.88,-207 365.4,-207 365.4,-207 371.4,-207 377.4,-213 377.4,-219 377.4,-219 377.4,-232.89 377.4,-232.89 377.4,-238.89 371.4,-244.89 365.4,-244.89"/>
<text xml:space="preserve" text-anchor="middle" x="313.64" y="-232.97" font-family="Helvetica,sans-Serif" font-size="8.00">304 &#160;Dependency Analysis</text>
<text xml:space="preserve" text-anchor="middle" x="313.64" y="-223.22" font-family="Helvetica,sans-Serif" font-size="8.00">DAG validation, topological sort</text>
<text xml:space="preserve" text-anchor="middle" x="313.64" y="-213.47" font-family="Helvetica,sans-Serif" font-size="8.00">Generate parallel work waves</text>
</g>
<!-- t303&#45;&gt;t304 -->
<g id="edge4" class="edge">
<title>t303&#45;&gt;t304</title>
<path fill="none" stroke="black" d="M198.81,-286.69C220.36,-275.48 248.09,-261.05 270.9,-249.18"/>
<polygon fill="black" stroke="black" points="272.01,-251.37 277.09,-245.96 269.75,-247.02 272.01,-251.37"/>
</g>
<!-- kg -->
<g id="node9" class="node">
<title>kg</title>
<path fill="#e8d5f5" stroke="black" d="M360.53,-321.81C360.53,-323.76 342.2,-325.33 319.64,-325.33 297.08,-325.33 278.75,-323.76 278.75,-321.81 278.75,-321.81 278.75,-290.16 278.75,-290.16 278.75,-288.22 297.08,-286.64 319.64,-286.64 342.2,-286.64 360.53,-288.22 360.53,-290.16 360.53,-290.16 360.53,-321.81 360.53,-321.81"/>
<path fill="none" stroke="black" d="M360.53,-321.81C360.53,-319.87 342.2,-318.3 319.64,-318.3 297.08,-318.3 278.75,-319.87 278.75,-321.81"/>
<text xml:space="preserve" text-anchor="middle" x="319.64" y="-308.14" font-family="Helvetica,sans-Serif" font-size="8.00">Knowledge Graph</text>
<text xml:space="preserve" text-anchor="middle" x="319.64" y="-298.39" font-family="Helvetica,sans-Serif" font-size="8.00">task nodes</text>
</g>
<!-- t303&#45;&gt;kg -->
<g id="edge8" class="edge">
<title>t303&#45;&gt;kg</title>
<path fill="none" stroke="#8b008b" stroke-dasharray="5,2" d="M230.06,-305.99C244.02,-305.99 257.98,-305.99 271.94,-305.99"/>
<polygon fill="#8b008b" stroke="#8b008b" points="271.84,-307.74 276.84,-305.99 271.84,-304.24 271.84,-307.74"/>
</g>
<!-- o_tasks -->
<g id="node11" class="node">
<title>o_tasks</title>
<polygon fill="#fffacd" stroke="black" points="212.53,-243.94 108.76,-243.94 108.76,-207.94 218.53,-207.94 218.53,-237.94 212.53,-243.94"/>
<polyline fill="none" stroke="black" points="212.53,-243.94 212.53,-237.94"/>
<polyline fill="none" stroke="black" points="218.53,-237.94 212.53,-237.94"/>
<text xml:space="preserve" text-anchor="middle" x="163.64" y="-228.09" font-family="Helvetica,sans-Serif" font-size="8.00">.taskmaster/tasks/tasks.json</text>
<text xml:space="preserve" text-anchor="middle" x="163.64" y="-218.34" font-family="Helvetica,sans-Serif" font-size="8.00">id, title, deps, priority</text>
</g>
<!-- t303&#45;&gt;o_tasks -->
<g id="edge11" class="edge">
<title>t303&#45;&gt;o_tasks</title>
<path fill="none" stroke="#4169e1" stroke-dasharray="5,2" d="M163.64,-286.89C163.64,-276.1 163.64,-262.28 163.64,-250.63"/>
<polygon fill="#4169e1" stroke="#4169e1" points="165.39,-250.92 163.64,-245.92 161.89,-250.92 165.39,-250.92"/>
</g>
<!-- t305 -->
<g id="node6" class="node">
<title>t305</title>
<path fill="#e8e8e8" stroke="black" d="M340.28,-174C340.28,-174 287,-174 287,-174 281,-174 275,-168 275,-162 275,-162 275,-150 275,-150 275,-144 281,-138 287,-138 287,-138 340.28,-138 340.28,-138 346.28,-138 352.28,-144 352.28,-150 352.28,-150 352.28,-162 352.28,-162 352.28,-168 346.28,-174 340.28,-174"/>
<text xml:space="preserve" text-anchor="middle" x="313.64" y="-153.28" font-family="Helvetica,sans-Serif" font-size="8.00">305 &#160;Phase Audit</text>
</g>
<!-- t304&#45;&gt;t305 -->
<g id="edge5" class="edge">
<title>t304&#45;&gt;t305</title>
<path fill="none" stroke="black" d="M313.64,-206.74C313.64,-199.35 313.64,-190.68 313.64,-182.67"/>
<polygon fill="black" stroke="black" points="316.09,-182.83 313.64,-175.83 311.19,-182.83 316.09,-182.83"/>
</g>
<!-- o_waves -->
<g id="node12" class="node">
<title>o_waves</title>
<polygon fill="#fffacd" stroke="black" points="516.4,-243.94 426.88,-243.94 426.88,-207.94 522.4,-207.94 522.4,-237.94 516.4,-243.94"/>
<polyline fill="none" stroke="black" points="516.4,-243.94 516.4,-237.94"/>
<polyline fill="none" stroke="black" points="522.4,-237.94 516.4,-237.94"/>
<text xml:space="preserve" text-anchor="middle" x="474.64" y="-232.97" font-family="Helvetica,sans-Serif" font-size="8.00">.taskmaster/reports/</text>
<text xml:space="preserve" text-anchor="middle" x="474.64" y="-223.22" font-family="Helvetica,sans-Serif" font-size="8.00">work&#45;packages.json</text>
<text xml:space="preserve" text-anchor="middle" x="474.64" y="-213.47" font-family="Helvetica,sans-Serif" font-size="8.00">dependency&#45;graph.json</text>
</g>
<!-- t304&#45;&gt;o_waves -->
<g id="edge12" class="edge">
<title>t304&#45;&gt;o_waves</title>
<path fill="none" stroke="#4169e1" stroke-dasharray="5,2" d="M377.79,-225.94C391.9,-225.94 406,-225.94 420.11,-225.94"/>
<polygon fill="#4169e1" stroke="#4169e1" points="420.08,-227.7 425.08,-225.95 420.08,-224.2 420.08,-227.7"/>
</g>
<!-- t306 -->
<g id="node7" class="node">
<title>t306</title>
<path fill="#e8e8e8" stroke="black" d="M335.03,-105C335.03,-105 292.25,-105 292.25,-105 286.25,-105 280.25,-99 280.25,-93 280.25,-93 280.25,-81 280.25,-81 280.25,-75 286.25,-69 292.25,-69 292.25,-69 335.03,-69 335.03,-69 341.03,-69 347.03,-75 347.03,-81 347.03,-81 347.03,-93 347.03,-93 347.03,-99 341.03,-105 335.03,-105"/>
<text xml:space="preserve" text-anchor="middle" x="313.64" y="-84.28" font-family="Helvetica,sans-Serif" font-size="8.00">306 &#160;Closeout</text>
</g>
<!-- t305&#45;&gt;t306 -->
<g id="edge6" class="edge">
<title>t305&#45;&gt;t306</title>
<path fill="none" stroke="black" d="M313.64,-137.75C313.64,-130.46 313.64,-121.81 313.64,-113.79"/>
<polygon fill="black" stroke="black" points="316.09,-113.94 313.64,-106.94 311.19,-113.94 316.09,-113.94"/>
</g>
<!-- next -->
<g id="node8" class="node">
<title>next</title>
<path fill="#b3d9ff" stroke="black" stroke-width="2" d="M362.78,-36C362.78,-36 264.5,-36 264.5,-36 258.5,-36 252.5,-30 252.5,-24 252.5,-24 252.5,-12 252.5,-12 252.5,-6 258.5,0 264.5,0 264.5,0 362.78,0 362.78,0 368.78,0 374.78,-6 374.78,-12 374.78,-12 374.78,-24 374.78,-24 374.78,-30 368.78,-36 362.78,-36"/>
<text xml:space="preserve" text-anchor="middle" x="313.64" y="-15.28" font-family="Helvetica,sans-Serif" font-size="8.00">Phase 4: Specification &#160;u2192</text>
</g>
<!-- t306&#45;&gt;next -->
<g id="edge7" class="edge">
<title>t306&#45;&gt;next</title>
<path fill="none" stroke="black" d="M313.64,-68.75C313.64,-61.46 313.64,-52.81 313.64,-44.79"/>
<polygon fill="black" stroke="black" points="316.09,-44.94 313.64,-37.94 311.19,-44.94 316.09,-44.94"/>
</g>
<!-- kg&#45;&gt;t304 -->
<g id="edge9" class="edge">
<title>kg&#45;&gt;t304</title>
<path fill="none" stroke="#8b008b" stroke-dasharray="5,2" d="M318.22,-286.49C317.42,-276.09 316.41,-262.97 315.54,-251.7"/>
<polygon fill="#8b008b" stroke="#8b008b" points="317.3,-251.67 315.17,-246.82 313.81,-251.94 317.3,-251.67"/>
<text xml:space="preserve" text-anchor="middle" x="340.25" y="-263.04" font-family="Helvetica,sans-Serif" font-size="8.00">validate deps</text>
</g>
<!-- agents -->
<g id="node10" class="node">
<title>agents</title>
<polygon fill="#e0ffe0" stroke="black" points="308.78,-405.97 186.5,-405.97 186.5,-401.97 182.5,-401.97 182.5,-397.97 186.5,-397.97 186.5,-366.33 182.5,-366.33 182.5,-362.33 186.5,-362.33 186.5,-358.33 308.78,-358.33 308.78,-405.97"/>
<polyline fill="none" stroke="black" points="186.5,-401.97 190.5,-401.97 190.5,-397.97 186.5,-397.97"/>
<polyline fill="none" stroke="black" points="186.5,-366.33 190.5,-366.33 190.5,-362.33 186.5,-362.33"/>
<text xml:space="preserve" text-anchor="middle" x="247.64" y="-394.05" font-family="Helvetica,sans-Serif" font-size="8.00">task&#45;decomposer [opus]</text>
<text xml:space="preserve" text-anchor="middle" x="247.64" y="-384.3" font-family="Helvetica,sans-Serif" font-size="8.00">dependency&#45;mapper [sonnet]</text>
<text xml:space="preserve" text-anchor="middle" x="247.64" y="-374.55" font-family="Helvetica,sans-Serif" font-size="8.00">work&#45;packager [sonnet]</text>
<text xml:space="preserve" text-anchor="middle" x="247.64" y="-364.8" font-family="Helvetica,sans-Serif" font-size="8.00">coverage&#45;checker [haiku]</text>
</g>
<!-- agents&#45;&gt;t303 -->
<g id="edge10" class="edge">
<title>agents&#45;&gt;t303</title>
<path fill="none" stroke="#666666" stroke-dasharray="1,5" d="M221.52,-358.09C211.26,-349.03 199.51,-338.66 189.29,-329.63"/>
<polygon fill="#666666" stroke="#666666" points="190.45,-328.32 185.55,-326.33 188.14,-330.95 190.45,-328.32"/>
</g>
</g>
</svg>
