<?xml version="1.0" encoding="UTF-8" standalone="no"?>
<!DOCTYPE svg PUBLIC "-//W3C//DTD SVG 1.1//EN"
 "http://www.w3.org/Graphics/SVG/1.1/DTD/svg11.dtd">
<!-- Generated by graphviz version 14.1.2 (20260124.0452)
 -->
<!-- Title: phase_05_implementation Pages: 1 -->
<svg width="1054pt" height="1643pt"
 viewBox="0.00 0.00 1054.00 1643.00" xmlns="http://www.w3.org/2000/svg" xmlns:xlink="http://www.w3.org/1999/xlink">
<g id="graph0" class="graph" transform="scale(1 1) rotate(0) translate(36 1606.7)">
<title>phase_05_implementation</title>
<polygon fill="white" stroke="none" points="-36,36 -36,-1606.7 1017.95,-1606.7 1017.95,36 -36,36"/>
<text xml:space="preserve" text-anchor="middle" x="490.97" y="-1553.4" font-family="Helvetica,sans-Serif" font-size="14.00">Phase 5: Implementation — TDD Execution Engine</text>
<g id="clust1" class="cluster">
<title>cluster_exec</title>
<polygon fill="#fffff0" stroke="#cc6600" points="281.33,-422 281.33,-1092.95 654.33,-1092.95 654.33,-422 281.33,-422"/>
<text xml:space="preserve" text-anchor="middle" x="467.83" y="-1075.65" font-family="Helvetica,sans-Serif" font-size="14.00">Task 504: TDD Execution (DAG&#45;ordered waves)</text>
</g>
<g id="clust2" class="cluster">
<title>cluster_cycle</title>
<polygon fill="none" stroke="#666666" stroke-dasharray="5,2" points="289.33,-430 289.33,-838.75 427.33,-838.75 427.33,-430 289.33,-430"/>
<text xml:space="preserve" text-anchor="middle" x="358.33" y="-821.45" font-family="Helvetica,sans-Serif" font-size="14.00">Per&#45;Task TDD Cycle</text>
</g>
<!-- t501 -->
<g id="node1" class="node">
<title>t501</title>
<polygon fill="#fffacd" stroke="black" points="791.71,-1465.95 660.96,-1465.95 660.96,-1385.95 791.71,-1385.95 791.71,-1465.95"/>
<text xml:space="preserve" text-anchor="middle" x="726.33" y="-1452.45" font-family="Helvetica,sans-Serif" font-size="10.00">Task 501</text>
<text xml:space="preserve" text-anchor="middle" x="726.33" y="-1440.45" font-family="Helvetica,sans-Serif" font-size="10.00">Entry &amp; Initialization</text>
<text xml:space="preserve" text-anchor="middle" x="726.33" y="-1428.45" font-family="Helvetica,sans-Serif" font-size="10.00">─────────────</text>
<text xml:space="preserve" text-anchor="middle" x="726.33" y="-1416.45" font-family="Helvetica,sans-Serif" font-size="10.00">Validate Phase 4 closeout</text>
<text xml:space="preserve" text-anchor="middle" x="726.33" y="-1404.45" font-family="Helvetica,sans-Serif" font-size="10.00">Verify TDD subtasks exist</text>
<text xml:space="preserve" text-anchor="middle" x="726.33" y="-1392.45" font-family="Helvetica,sans-Serif" font-size="10.00">Init .claude/testing/</text>
</g>
<!-- t502 -->
<g id="node2" class="node">
<title>t502</title>
<polygon fill="#fffacd" stroke="black" points="658.21,-1340.95 488.46,-1340.95 488.46,-1260.95 658.21,-1260.95 658.21,-1340.95"/>
<text xml:space="preserve" text-anchor="middle" x="573.33" y="-1327.45" font-family="Helvetica,sans-Serif" font-size="10.00">Task 502</text>
<text xml:space="preserve" text-anchor="middle" x="573.33" y="-1315.45" font-family="Helvetica,sans-Serif" font-size="10.00">TDD Setup</text>
<text xml:space="preserve" text-anchor="middle" x="573.33" y="-1303.45" font-family="Helvetica,sans-Serif" font-size="10.00">─────────────</text>
<text xml:space="preserve" text-anchor="middle" x="573.33" y="-1291.45" font-family="Helvetica,sans-Serif" font-size="10.00">Detect tech stack:</text>
<text xml:space="preserve" text-anchor="middle" x="573.33" y="-1279.45" font-family="Helvetica,sans-Serif" font-size="10.00">filesystem → PRD → spec → user</text>
<text xml:space="preserve" text-anchor="middle" x="573.33" y="-1267.45" font-family="Helvetica,sans-Serif" font-size="10.00">Coverage targets, test pyramid</text>
</g>
<!-- t501&#45;&gt;t502 -->
<g id="edge7" class="edge">
<title>t501&#45;&gt;t502</title>
<path fill="none" stroke="black" d="M677.5,-1385.69C662.74,-1373.82 646.38,-1360.67 631.09,-1348.37"/>
<polygon fill="black" stroke="black" points="633.39,-1345.74 623.41,-1342.2 629.01,-1351.19 633.39,-1345.74"/>
</g>
<!-- t503 -->
<g id="node3" class="node">
<title>t503</title>
<polygon fill="#fffacd" stroke="black" points="648.83,-1215.95 497.83,-1215.95 497.83,-1123.95 648.83,-1123.95 648.83,-1215.95"/>
<text xml:space="preserve" text-anchor="middle" x="573.33" y="-1202.45" font-family="Helvetica,sans-Serif" font-size="10.00">Task 503</text>
<text xml:space="preserve" text-anchor="middle" x="573.33" y="-1190.45" font-family="Helvetica,sans-Serif" font-size="10.00">Agent Selection</text>
<text xml:space="preserve" text-anchor="middle" x="573.33" y="-1178.45" font-family="Helvetica,sans-Serif" font-size="10.00">─────────────</text>
<text xml:space="preserve" text-anchor="middle" x="573.33" y="-1166.45" font-family="Helvetica,sans-Serif" font-size="10.00">RED: test&#45;strategist</text>
<text xml:space="preserve" text-anchor="middle" x="573.33" y="-1154.45" font-family="Helvetica,sans-Serif" font-size="10.00">GREEN: tdd&#45;implementation</text>
<text xml:space="preserve" text-anchor="middle" x="573.33" y="-1142.45" font-family="Helvetica,sans-Serif" font-size="10.00">REFACTOR: code&#45;review&#45;gate</text>
<text xml:space="preserve" text-anchor="middle" x="573.33" y="-1130.45" font-family="Helvetica,sans-Serif" font-size="10.00">VERIFY: plan&#45;guardian</text>
</g>
<!-- t502&#45;&gt;t503 -->
<g id="edge8" class="edge">
<title>t502&#45;&gt;t503</title>
<path fill="none" stroke="black" d="M573.33,-1260.54C573.33,-1250.2 573.33,-1238.84 573.33,-1227.79"/>
<polygon fill="black" stroke="black" points="576.83,-1227.95 573.33,-1217.95 569.83,-1227.95 576.83,-1227.95"/>
</g>
<!-- pilot -->
<g id="node4" class="node">
<title>pilot</title>
<polygon fill="#ffe4b5" stroke="black" points="504.96,-1061.2 411.71,-1061.2 411.71,-1017.2 504.96,-1017.2 504.96,-1061.2"/>
<text xml:space="preserve" text-anchor="middle" x="458.33" y="-1047.7" font-family="Helvetica,sans-Serif" font-size="10.00">Pilot Batch</text>
<text xml:space="preserve" text-anchor="middle" x="458.33" y="-1035.7" font-family="Helvetica,sans-Serif" font-size="10.00">2&#45;3 root tasks</text>
<text xml:space="preserve" text-anchor="middle" x="458.33" y="-1023.7" font-family="Helvetica,sans-Serif" font-size="10.00">Validate approach</text>
</g>
<!-- t503&#45;&gt;pilot -->
<g id="edge9" class="edge">
<title>t503&#45;&gt;pilot</title>
<path fill="none" stroke="black" d="M532.79,-1123.55C516.86,-1105.72 499.02,-1085.74 484.8,-1069.82"/>
<polygon fill="black" stroke="black" points="487.58,-1067.69 478.31,-1062.56 482.36,-1072.35 487.58,-1067.69"/>
</g>
<!-- dag -->
<g id="node5" class="node">
<title>dag</title>
<polygon fill="#ffe4b5" stroke="black" points="521.08,-945.1 395.58,-945.1 395.58,-901.1 521.08,-901.1 521.08,-945.1"/>
<text xml:space="preserve" text-anchor="middle" x="458.33" y="-931.6" font-family="Helvetica,sans-Serif" font-size="10.00">DAG Wave Execution</text>
<text xml:space="preserve" text-anchor="middle" x="458.33" y="-919.6" font-family="Helvetica,sans-Serif" font-size="10.00">Parallel within waves</text>
<text xml:space="preserve" text-anchor="middle" x="458.33" y="-907.6" font-family="Helvetica,sans-Serif" font-size="10.00">Sequential across waves</text>
</g>
<!-- pilot&#45;&gt;dag -->
<g id="edge1" class="edge">
<title>pilot&#45;&gt;dag</title>
<path fill="none" stroke="black" d="M458.33,-1016.74C458.33,-999.84 458.33,-976.02 458.33,-956.76"/>
<polygon fill="black" stroke="black" points="461.83,-956.98 458.33,-946.98 454.83,-956.98 461.83,-956.98"/>
<text xml:space="preserve" text-anchor="middle" x="481.21" y="-986.65" font-family="Helvetica,sans-Serif" font-size="9.00">&gt;50% pass</text>
</g>
<!-- red -->
<g id="node6" class="node">
<title>red</title>
<polygon fill="#ffb6c1" stroke="black" points="406.83,-807 297.83,-807 297.83,-763 406.83,-763 406.83,-807"/>
<text xml:space="preserve" text-anchor="middle" x="352.33" y="-793.5" font-family="Helvetica,sans-Serif" font-size="10.00">RED</text>
<text xml:space="preserve" text-anchor="middle" x="352.33" y="-781.5" font-family="Helvetica,sans-Serif" font-size="10.00">Generate failing tests</text>
<text xml:space="preserve" text-anchor="middle" x="352.33" y="-769.5" font-family="Helvetica,sans-Serif" font-size="10.00">Gate: compile check</text>
</g>
<!-- dag&#45;&gt;red -->
<g id="edge5" class="edge">
<title>dag&#45;&gt;red</title>
<path fill="none" stroke="black" d="M441.77,-900.83C424.04,-878.06 395.75,-841.74 375.74,-816.05"/>
<polygon fill="black" stroke="black" points="378.62,-814.05 369.71,-808.31 373.09,-818.35 378.62,-814.05"/>
</g>
<!-- budget -->
<g id="node10" class="node">
<title>budget</title>
<polygon fill="#ffd700" stroke="black" points="544.33,-829 442.83,-785 544.33,-741 645.83,-785 544.33,-829"/>
<text xml:space="preserve" text-anchor="middle" x="544.33" y="-793.5" font-family="Helvetica,sans-Serif" font-size="10.00">Token Budget</text>
<text xml:space="preserve" text-anchor="middle" x="544.33" y="-781.5" font-family="Helvetica,sans-Serif" font-size="10.00">Tracking</text>
<text xml:space="preserve" text-anchor="middle" x="544.33" y="-769.5" font-family="Helvetica,sans-Serif" font-size="10.00">(pause if exceeded)</text>
</g>
<!-- dag&#45;&gt;budget -->
<g id="edge6" class="edge">
<title>dag&#45;&gt;budget</title>
<path fill="none" stroke="black" stroke-dasharray="5,2" d="M471.77,-900.83C483.77,-881.84 501.72,-853.43 516.77,-829.62"/>
<polygon fill="black" stroke="black" points="519.61,-831.68 521.99,-821.36 513.69,-827.94 519.61,-831.68"/>
</g>
<!-- green -->
<g id="node7" class="node">
<title>green</title>
<polygon fill="#90ee90" stroke="black" points="417.71,-696 298.96,-696 298.96,-640 417.71,-640 417.71,-696"/>
<text xml:space="preserve" text-anchor="middle" x="358.33" y="-682.5" font-family="Helvetica,sans-Serif" font-size="10.00">GREEN</text>
<text xml:space="preserve" text-anchor="middle" x="358.33" y="-670.5" font-family="Helvetica,sans-Serif" font-size="10.00">Minimal implementation</text>
<text xml:space="preserve" text-anchor="middle" x="358.33" y="-658.5" font-family="Helvetica,sans-Serif" font-size="10.00">Gate: tests pass</text>
<text xml:space="preserve" text-anchor="middle" x="358.33" y="-646.5" font-family="Helvetica,sans-Serif" font-size="10.00">(max 3 retries)</text>
</g>
<!-- red&#45;&gt;green -->
<g id="edge2" class="edge">
<title>red&#45;&gt;green</title>
<path fill="none" stroke="black" d="M353.45,-762.64C354.25,-747.22 355.36,-725.97 356.32,-707.61"/>
<polygon fill="black" stroke="black" points="359.8,-708.02 356.83,-697.86 352.81,-707.66 359.8,-708.02"/>
</g>
<!-- refactor -->
<g id="node8" class="node">
<title>refactor</title>
<polygon fill="#add8e6" stroke="black" points="399.33,-583 317.33,-583 317.33,-539 399.33,-539 399.33,-583"/>
<text xml:space="preserve" text-anchor="middle" x="358.33" y="-569.5" font-family="Helvetica,sans-Serif" font-size="10.00">REFACTOR</text>
<text xml:space="preserve" text-anchor="middle" x="358.33" y="-557.5" font-family="Helvetica,sans-Serif" font-size="10.00">Lint + clean up</text>
<text xml:space="preserve" text-anchor="middle" x="358.33" y="-545.5" font-family="Helvetica,sans-Serif" font-size="10.00">Gate: lint clean</text>
</g>
<!-- green&#45;&gt;refactor -->
<g id="edge3" class="edge">
<title>green&#45;&gt;refactor</title>
<path fill="none" stroke="black" d="M358.33,-639.69C358.33,-625.92 358.33,-609.12 358.33,-594.68"/>
<polygon fill="black" stroke="black" points="361.83,-594.73 358.33,-584.73 354.83,-594.73 361.83,-594.73"/>
</g>
<!-- registry -->
<g id="node17" class="node">
<title>registry</title>
<polygon fill="#e0ffe0" stroke="black" points="790.58,-595 662.08,-595 662.08,-591 658.08,-591 658.08,-587 662.08,-587 662.08,-535 658.08,-535 658.08,-531 662.08,-531 662.08,-527 790.58,-527 790.58,-595"/>
<polyline fill="none" stroke="black" points="662.08,-591 666.08,-591 666.08,-587 662.08,-587"/>
<polyline fill="none" stroke="black" points="662.08,-535 666.08,-535 666.08,-531 662.08,-531"/>
<text xml:space="preserve" text-anchor="middle" x="726.33" y="-581.5" font-family="Helvetica,sans-Serif" font-size="10.00">ProjectSourceRegistry</text>
<text xml:space="preserve" text-anchor="middle" x="726.33" y="-569.5" font-family="Helvetica,sans-Serif" font-size="10.00">(thread&#45;safe)</text>
<text xml:space="preserve" text-anchor="middle" x="726.33" y="-557.5" font-family="Helvetica,sans-Serif" font-size="10.00">Tracks generated files</text>
<text xml:space="preserve" text-anchor="middle" x="726.33" y="-545.5" font-family="Helvetica,sans-Serif" font-size="10.00">Passes dependency code</text>
<text xml:space="preserve" text-anchor="middle" x="726.33" y="-533.5" font-family="Helvetica,sans-Serif" font-size="10.00">to downstream tasks</text>
</g>
<!-- green&#45;&gt;registry -->
<g id="edge16" class="edge">
<title>green&#45;&gt;registry</title>
<path fill="none" stroke="#666666" stroke-dasharray="5,2" d="M417.87,-650.01C481.3,-631.91 581.88,-603.22 650.83,-583.54"/>
<polygon fill="#666666" stroke="#666666" points="651.51,-586.99 660.16,-580.88 649.59,-580.26 651.51,-586.99"/>
</g>
<!-- verify -->
<g id="node9" class="node">
<title>verify</title>
<polygon fill="#dda0dd" stroke="black" points="416.58,-482 300.08,-482 300.08,-438 416.58,-438 416.58,-482"/>
<text xml:space="preserve" text-anchor="middle" x="358.33" y="-468.5" font-family="Helvetica,sans-Serif" font-size="10.00">VERIFY</text>
<text xml:space="preserve" text-anchor="middle" x="358.33" y="-456.5" font-family="Helvetica,sans-Serif" font-size="10.00">Security scan</text>
<text xml:space="preserve" text-anchor="middle" x="358.33" y="-444.5" font-family="Helvetica,sans-Serif" font-size="10.00">Gate: no critical issues</text>
</g>
<!-- refactor&#45;&gt;verify -->
<g id="edge4" class="edge">
<title>refactor&#45;&gt;verify</title>
<path fill="none" stroke="black" d="M358.33,-538.52C358.33,-525.42 358.33,-508.41 358.33,-493.66"/>
<polygon fill="black" stroke="black" points="361.83,-493.95 358.33,-483.95 354.83,-493.95 361.83,-493.95"/>
</g>
<!-- t505 -->
<g id="node11" class="node">
<title>t505</title>
<polygon fill="#fffacd" stroke="black" points="317.71,-391 198.96,-391 198.96,-299 317.71,-299 317.71,-391"/>
<text xml:space="preserve" text-anchor="middle" x="258.33" y="-377.5" font-family="Helvetica,sans-Serif" font-size="10.00">Task 505</text>
<text xml:space="preserve" text-anchor="middle" x="258.33" y="-365.5" font-family="Helvetica,sans-Serif" font-size="10.00">Validation</text>
<text xml:space="preserve" text-anchor="middle" x="258.33" y="-353.5" font-family="Helvetica,sans-Serif" font-size="10.00">─────────────</text>
<text xml:space="preserve" text-anchor="middle" x="258.33" y="-341.5" font-family="Helvetica,sans-Serif" font-size="10.00">Aggregate TDD records</text>
<text xml:space="preserve" text-anchor="middle" x="258.33" y="-329.5" font-family="Helvetica,sans-Serif" font-size="10.00">Run test suite</text>
<text xml:space="preserve" text-anchor="middle" x="258.33" y="-317.5" font-family="Helvetica,sans-Serif" font-size="10.00">Measure coverage</text>
<text xml:space="preserve" text-anchor="middle" x="258.33" y="-305.5" font-family="Helvetica,sans-Serif" font-size="10.00">Security summary</text>
</g>
<!-- verify&#45;&gt;t505 -->
<g id="edge10" class="edge">
<title>verify&#45;&gt;t505</title>
<path fill="none" stroke="black" d="M339.52,-437.75C329.97,-426.94 317.88,-413.28 305.97,-399.82"/>
<polygon fill="black" stroke="black" points="308.85,-397.8 299.6,-392.63 303.61,-402.44 308.85,-397.8"/>
</g>
<!-- o_progress -->
<g id="node18" class="node">
<title>o_progress</title>
<polygon fill="#fffacd" stroke="black" points="451.21,-391 353.46,-391 353.46,-299 457.21,-299 457.21,-385 451.21,-391"/>
<polyline fill="none" stroke="black" points="451.21,-391 451.21,-385"/>
<polyline fill="none" stroke="black" points="457.21,-385 451.21,-385"/>
<text xml:space="preserve" text-anchor="middle" x="405.33" y="-377.5" font-family="Helvetica,sans-Serif" font-size="10.00">.claude/testing/</text>
<text xml:space="preserve" text-anchor="middle" x="405.33" y="-365.5" font-family="Helvetica,sans-Serif" font-size="10.00">tdd&#45;progress.json</text>
<text xml:space="preserve" text-anchor="middle" x="405.33" y="-353.5" font-family="Helvetica,sans-Serif" font-size="10.00">tdd&#45;t*.json</text>
<text xml:space="preserve" text-anchor="middle" x="405.33" y="-341.5" font-family="Helvetica,sans-Serif" font-size="10.00">─────────────</text>
<text xml:space="preserve" text-anchor="middle" x="405.33" y="-329.5" font-family="Helvetica,sans-Serif" font-size="10.00">Per&#45;task: status,</text>
<text xml:space="preserve" text-anchor="middle" x="405.33" y="-317.5" font-family="Helvetica,sans-Serif" font-size="10.00">test files, impl files,</text>
<text xml:space="preserve" text-anchor="middle" x="405.33" y="-305.5" font-family="Helvetica,sans-Serif" font-size="10.00">attempts, duration</text>
</g>
<!-- verify&#45;&gt;o_progress -->
<g id="edge18" class="edge">
<title>verify&#45;&gt;o_progress</title>
<path fill="none" stroke="#4169e1" stroke-dasharray="5,2" d="M367.17,-437.75C371.41,-427.56 376.71,-414.82 382,-402.11"/>
<polygon fill="#4169e1" stroke="#4169e1" points="385.22,-403.47 385.83,-392.9 378.76,-400.78 385.22,-403.47"/>
</g>
<!-- t506 -->
<g id="node12" class="node">
<title>t506</title>
<polygon fill="#e8e8e8" stroke="black" points="231.58,-226 163.08,-226 163.08,-190 231.58,-190 231.58,-226"/>
<text xml:space="preserve" text-anchor="middle" x="197.33" y="-210.5" font-family="Helvetica,sans-Serif" font-size="10.00">Task 506</text>
<text xml:space="preserve" text-anchor="middle" x="197.33" y="-198.5" font-family="Helvetica,sans-Serif" font-size="10.00">Phase Audit</text>
</g>
<!-- t505&#45;&gt;t506 -->
<g id="edge11" class="edge">
<title>t505&#45;&gt;t506</title>
<path fill="none" stroke="black" d="M237.85,-298.67C228.57,-278.12 217.88,-254.48 209.82,-236.64"/>
<polygon fill="black" stroke="black" points="213.11,-235.4 205.8,-227.73 206.73,-238.29 213.11,-235.4"/>
</g>
<!-- o_validation -->
<g id="node19" class="node">
<title>o_validation</title>
<polygon fill="#fffacd" stroke="black" points="367.33,-254 267.33,-254 267.33,-162 373.33,-162 373.33,-248 367.33,-254"/>
<polyline fill="none" stroke="black" points="367.33,-254 367.33,-248"/>
<polyline fill="none" stroke="black" points="373.33,-248 367.33,-248"/>
<text xml:space="preserve" text-anchor="middle" x="320.33" y="-240.5" font-family="Helvetica,sans-Serif" font-size="10.00">validation&#45;report.json</text>
<text xml:space="preserve" text-anchor="middle" x="320.33" y="-228.5" font-family="Helvetica,sans-Serif" font-size="10.00">─────────────</text>
<text xml:space="preserve" text-anchor="middle" x="320.33" y="-216.5" font-family="Helvetica,sans-Serif" font-size="10.00">completion rate</text>
<text xml:space="preserve" text-anchor="middle" x="320.33" y="-204.5" font-family="Helvetica,sans-Serif" font-size="10.00">tdd cycles</text>
<text xml:space="preserve" text-anchor="middle" x="320.33" y="-192.5" font-family="Helvetica,sans-Serif" font-size="10.00">test results</text>
<text xml:space="preserve" text-anchor="middle" x="320.33" y="-180.5" font-family="Helvetica,sans-Serif" font-size="10.00">coverage %</text>
<text xml:space="preserve" text-anchor="middle" x="320.33" y="-168.5" font-family="Helvetica,sans-Serif" font-size="10.00">security issues</text>
</g>
<!-- t505&#45;&gt;o_validation -->
<g id="edge19" class="edge">
<title>t505&#45;&gt;o_validation</title>
<path fill="none" stroke="#4169e1" stroke-dasharray="5,2" d="M279.15,-298.67C284.16,-287.76 289.57,-275.99 294.77,-264.67"/>
<polygon fill="#4169e1" stroke="#4169e1" points="297.84,-266.36 298.83,-255.81 291.48,-263.44 297.84,-266.36"/>
</g>
<!-- t507 -->
<g id="node13" class="node">
<title>t507</title>
<polygon fill="#e8e8e8" stroke="black" points="112.21,-117 56.46,-117 56.46,-81 112.21,-81 112.21,-117"/>
<text xml:space="preserve" text-anchor="middle" x="84.33" y="-101.5" font-family="Helvetica,sans-Serif" font-size="10.00">Task 507</text>
<text xml:space="preserve" text-anchor="middle" x="84.33" y="-89.5" font-family="Helvetica,sans-Serif" font-size="10.00">Closeout</text>
</g>
<!-- t506&#45;&gt;t507 -->
<g id="edge12" class="edge">
<title>t506&#45;&gt;t507</title>
<path fill="none" stroke="black" d="M178.93,-189.57C160.46,-172.08 131.83,-144.97 110.9,-125.15"/>
<polygon fill="black" stroke="black" points="113.5,-122.8 103.83,-118.46 108.69,-127.88 113.5,-122.8"/>
</g>
<!-- next -->
<g id="node24" class="node">
<title>next</title>
<polygon fill="#b3d9ff" stroke="black" stroke-width="2" points="149.33,-36 19.33,-36 19.33,0 149.33,0 149.33,-36"/>
<text xml:space="preserve" text-anchor="middle" x="84.33" y="-14.5" font-family="Helvetica,sans-Serif" font-size="10.00">→ Phase 6: Code Review</text>
</g>
<!-- t507&#45;&gt;next -->
<g id="edge24" class="edge">
<title>t507&#45;&gt;next</title>
<path fill="none" stroke="black" d="M84.33,-80.86C84.33,-71.19 84.33,-58.87 84.33,-47.76"/>
<polygon fill="black" stroke="black" points="87.83,-47.89 84.33,-37.89 80.83,-47.89 87.83,-47.89"/>
</g>
<!-- i_tasks -->
<g id="node14" class="node">
<title>i_tasks</title>
<polygon fill="#fffacd" stroke="black" points="791.71,-1546.95 654.96,-1546.95 654.96,-1510.95 797.71,-1510.95 797.71,-1540.95 791.71,-1546.95"/>
<polyline fill="none" stroke="black" points="791.71,-1546.95 791.71,-1540.95"/>
<polyline fill="none" stroke="black" points="797.71,-1540.95 791.71,-1540.95"/>
<text xml:space="preserve" text-anchor="middle" x="726.33" y="-1531.45" font-family="Helvetica,sans-Serif" font-size="10.00">.taskmaster/tasks/tasks.json</text>
<text xml:space="preserve" text-anchor="middle" x="726.33" y="-1519.45" font-family="Helvetica,sans-Serif" font-size="10.00">(with TDD subtasks)</text>
</g>
<!-- i_tasks&#45;&gt;t501 -->
<g id="edge13" class="edge">
<title>i_tasks&#45;&gt;t501</title>
<path fill="none" stroke="#666666" stroke-dasharray="1,5" d="M726.33,-1510.81C726.33,-1501.6 726.33,-1489.71 726.33,-1477.79"/>
<polygon fill="#666666" stroke="#666666" points="729.83,-1477.95 726.33,-1467.95 722.83,-1477.95 729.83,-1477.95"/>
</g>
<!-- i_specs -->
<g id="node15" class="node">
<title>i_specs</title>
<polygon fill="#fffacd" stroke="black" points="267.21,-941.1 157.46,-941.1 157.46,-905.1 273.21,-905.1 273.21,-935.1 267.21,-941.1"/>
<polyline fill="none" stroke="black" points="267.21,-941.1 267.21,-935.1"/>
<polyline fill="none" stroke="black" points="273.21,-935.1 267.21,-935.1"/>
<text xml:space="preserve" text-anchor="middle" x="215.33" y="-919.6" font-family="Helvetica,sans-Serif" font-size="10.00">.openspec/spec&#45;t*.json</text>
</g>
<!-- i_specs&#45;&gt;red -->
<g id="edge14" class="edge">
<title>i_specs&#45;&gt;red</title>
<path fill="none" stroke="#666666" stroke-dasharray="1,5" d="M213,-904.7C211.87,-889.23 212.63,-866.69 223.58,-851 238.75,-829.27 263.39,-814.4 287.06,-804.43"/>
<polygon fill="#666666" stroke="#666666" points="288.06,-807.8 296.07,-800.87 285.49,-801.29 288.06,-807.8"/>
<text xml:space="preserve" text-anchor="middle" x="247.96" y="-852.95" font-family="Helvetica,sans-Serif" font-size="9.00">test strategy</text>
</g>
<!-- llm -->
<g id="node16" class="node">
<title>llm</title>
<ellipse fill="#98fb98" stroke="black" cx="742.33" cy="-923.1" rx="80.26" ry="39.6"/>
<text xml:space="preserve" text-anchor="middle" x="742.33" y="-937.6" font-family="Helvetica,sans-Serif" font-size="10.00">opus</text>
<text xml:space="preserve" text-anchor="middle" x="742.33" y="-925.6" font-family="Helvetica,sans-Serif" font-size="10.00">RED, GREEN,</text>
<text xml:space="preserve" text-anchor="middle" x="742.33" y="-913.6" font-family="Helvetica,sans-Serif" font-size="10.00">REFACTOR, VERIFY</text>
<text xml:space="preserve" text-anchor="middle" x="742.33" y="-901.6" font-family="Helvetica,sans-Serif" font-size="10.00">(per task)</text>
</g>
<!-- llm&#45;&gt;red -->
<g id="edge15" class="edge">
<title>llm&#45;&gt;red</title>
<path fill="none" stroke="#228b22" stroke-dasharray="5,2" d="M712.5,-886.27C699.01,-872.69 681.93,-858.66 663.33,-851 611.49,-829.65 463.21,-860.02 411.33,-838.75 398.75,-833.59 387.07,-824.53 377.49,-815.36"/>
<polygon fill="#228b22" stroke="#228b22" points="380.2,-813.13 370.69,-808.45 375.21,-818.04 380.2,-813.13"/>
</g>
<!-- registry&#45;&gt;red -->
<g id="edge17" class="edge">
<title>registry&#45;&gt;red</title>
<path fill="none" stroke="#666666" stroke-dasharray="5,2" d="M662.64,-595.45C598.11,-629.96 496.02,-686.33 411.33,-741 404.07,-745.69 396.49,-750.93 389.28,-756.1"/>
<polygon fill="#666666" stroke="#666666" points="387.64,-752.96 381.61,-761.67 391.76,-758.62 387.64,-752.96"/>
<text xml:space="preserve" text-anchor="middle" x="599.78" y="-664.7" font-family="Helvetica,sans-Serif" font-size="9.00">dep code</text>
</g>
<!-- stacks -->
<g id="node20" class="node">
<title>stacks</title>
<polygon fill="#f0f0f0" stroke="black" points="624.46,-1465.95 492.21,-1465.95 492.21,-1469.95 480.21,-1469.95 480.21,-1385.95 624.46,-1385.95 624.46,-1465.95"/>
<polyline fill="none" stroke="black" points="480.21,-1465.95 492.21,-1465.95"/>
<text xml:space="preserve" text-anchor="middle" x="552.33" y="-1452.45" font-family="Helvetica,sans-Serif" font-size="10.00">Stack Profiles</text>
<text xml:space="preserve" text-anchor="middle" x="552.33" y="-1440.45" font-family="Helvetica,sans-Serif" font-size="10.00">─────────────</text>
<text xml:space="preserve" text-anchor="middle" x="552.33" y="-1428.45" font-family="Helvetica,sans-Serif" font-size="10.00">Python: pytest, py_compile</text>
<text xml:space="preserve" text-anchor="middle" x="552.33" y="-1416.45" font-family="Helvetica,sans-Serif" font-size="10.00">Rust: cargo test, clippy, audit</text>
<text xml:space="preserve" text-anchor="middle" x="552.33" y="-1404.45" font-family="Helvetica,sans-Serif" font-size="10.00">Node: jest, eslint, npm audit</text>
<text xml:space="preserve" text-anchor="middle" x="552.33" y="-1392.45" font-family="Helvetica,sans-Serif" font-size="10.00">Go: go test, go vet</text>
</g>
<!-- stacks&#45;&gt;t502 -->
<g id="edge20" class="edge">
<title>stacks&#45;&gt;t502</title>
<path fill="none" stroke="#666666" stroke-dasharray="1,5" d="M559.04,-1385.69C560.84,-1375.15 562.81,-1363.6 564.7,-1352.54"/>
<polygon fill="#666666" stroke="#666666" points="568.14,-1353.19 566.37,-1342.74 561.24,-1352.01 568.14,-1353.19"/>
</g>
<!-- h_pilot -->
<g id="node21" class="node">
<title>h_pilot</title>
<polygon fill="#ffd700" stroke="black" points="461.78,-1159.8 461.78,-1180.09 428.71,-1194.44 381.95,-1194.44 348.89,-1180.09 348.89,-1159.8 381.95,-1145.45 428.71,-1145.45 461.78,-1159.8"/>
<text xml:space="preserve" text-anchor="middle" x="405.33" y="-1172.45" font-family="Helvetica,sans-Serif" font-size="10.00">Human:</text>
<text xml:space="preserve" text-anchor="middle" x="405.33" y="-1160.45" font-family="Helvetica,sans-Serif" font-size="10.00">pilot approval</text>
</g>
<!-- h_pilot&#45;&gt;pilot -->
<g id="edge21" class="edge">
<title>h_pilot&#45;&gt;pilot</title>
<path fill="none" stroke="#cc0000" stroke-dasharray="5,2" d="M415.18,-1145.03C423.67,-1124.41 435.99,-1094.47 445.3,-1071.86"/>
<polygon fill="#cc0000" stroke="#cc0000" points="448.45,-1073.4 449.02,-1062.82 441.98,-1070.74 448.45,-1073.4"/>
</g>
<!-- h_budget -->
<g id="node22" class="node">
<title>h_budget</title>
<polygon fill="#ffd700" stroke="black" points="981.95,-912.95 981.95,-933.24 945.85,-947.59 894.81,-947.59 858.72,-933.24 858.72,-912.95 894.81,-898.61 945.85,-898.61 981.95,-912.95"/>
<text xml:space="preserve" text-anchor="middle" x="920.33" y="-925.6" font-family="Helvetica,sans-Serif" font-size="10.00">Human:</text>
<text xml:space="preserve" text-anchor="middle" x="920.33" y="-913.6" font-family="Helvetica,sans-Serif" font-size="10.00">budget confirm</text>
</g>
<!-- h_budget&#45;&gt;budget -->
<g id="edge22" class="edge">
<title>h_budget&#45;&gt;budget</title>
<path fill="none" stroke="#cc0000" stroke-dasharray="5,2" d="M881.73,-903.33C868.61,-896.99 853.85,-889.9 840.33,-883.5 809.33,-868.82 802.47,-863 770.33,-851 720.97,-832.57 663.94,-816.2 619.52,-804.5"/>
<polygon fill="#cc0000" stroke="#cc0000" points="620.53,-801.15 609.97,-802.01 618.76,-807.92 620.53,-801.15"/>
</g>
<!-- h_gate -->
<g id="node23" class="node">
<title>h_gate</title>
<polygon fill="#ffd700" stroke="black" points="126.67,-197.86 126.67,-218.14 89.57,-232.49 37.1,-232.49 0,-218.14 0,-197.86 37.1,-183.51 89.57,-183.51 126.67,-197.86"/>
<text xml:space="preserve" text-anchor="middle" x="63.33" y="-210.5" font-family="Helvetica,sans-Serif" font-size="10.00">HUMAN GATE</text>
<text xml:space="preserve" text-anchor="middle" x="63.33" y="-198.5" font-family="Helvetica,sans-Serif" font-size="10.00">Impl Review</text>
</g>
<!-- h_gate&#45;&gt;t507 -->
<g id="edge23" class="edge">
<title>h_gate&#45;&gt;t507</title>
<path fill="none" stroke="#cc0000" stroke-dasharray="5,2" d="M67.99,-183.25C71.18,-167.05 75.41,-145.5 78.76,-128.38"/>
<polygon fill="#cc0000" stroke="#cc0000" points="82.14,-129.33 80.64,-118.85 75.27,-127.99 82.14,-129.33"/>
</g>
</g>
</svg>
