<?xml version="1.0" encoding="UTF-8" standalone="no"?>
<!DOCTYPE svg PUBLIC "-//W3C//DTD SVG 1.1//EN"
 "http://www.w3.org/Graphics/SVG/1.1/DTD/svg11.dtd">
<!-- Generated by graphviz version 14.1.2 (20260124.0452)
 -->
<!-- Title: phase_06_code_review Pages: 1 -->
<svg width="1058pt" height="1194pt"
 viewBox="0.00 0.00 1058.00 1194.00" xmlns="http://www.w3.org/2000/svg" xmlns:xlink="http://www.w3.org/1999/xlink">
<g id="graph0" class="graph" transform="scale(1 1) rotate(0) translate(36 1157.75)">
<title>phase_06_code_review</title>
<polygon fill="white" stroke="none" points="-36,36 -36,-1157.75 1021.62,-1157.75 1021.62,36 -36,36"/>
<text xml:space="preserve" text-anchor="middle" x="492.81" y="-1104.45" font-family="Helvetica,sans-Serif" font-size="14.00">Phase 6: Code Review — 4&#45;Dimensional Parallel Review</text>
<g id="clust1" class="cluster">
<title>cluster_review</title>
<polygon fill="#fff0f5" stroke="#cc0066" points="396.62,-668 396.62,-857.75 977.62,-857.75 977.62,-668 396.62,-668"/>
<text xml:space="preserve" text-anchor="middle" x="687.12" y="-840.45" font-family="Helvetica,sans-Serif" font-size="14.00">Task 603: Comprehensive Review (TeamSession)</text>
</g>
<g id="clust3" class="cluster">
<title>cluster_refine</title>
<polygon fill="#f0fff0" stroke="#228b22" points="215.62,-350 215.62,-657.75 459.62,-657.75 459.62,-350 215.62,-350"/>
<text xml:space="preserve" text-anchor="middle" x="337.62" y="-640.45" font-family="Helvetica,sans-Serif" font-size="14.00">Task 604: Refinement</text>
</g>
<!-- t601 -->
<g id="node1" class="node">
<title>t601</title>
<polygon fill="#add8e6" stroke="black" points="129.25,-1098 0,-1098 0,-1030 129.25,-1030 129.25,-1098"/>
<text xml:space="preserve" text-anchor="middle" x="64.62" y="-1084.5" font-family="Helvetica,sans-Serif" font-size="10.00">Task 601</text>
<text xml:space="preserve" text-anchor="middle" x="64.62" y="-1072.5" font-family="Helvetica,sans-Serif" font-size="10.00">Entry &amp; Initialization</text>
<text xml:space="preserve" text-anchor="middle" x="64.62" y="-1060.5" font-family="Helvetica,sans-Serif" font-size="10.00">─────────────</text>
<text xml:space="preserve" text-anchor="middle" x="64.62" y="-1048.5" font-family="Helvetica,sans-Serif" font-size="10.00">Validate Phase 5 closeout</text>
<text xml:space="preserve" text-anchor="middle" x="64.62" y="-1036.5" font-family="Helvetica,sans-Serif" font-size="10.00">Display review overview</text>
</g>
<!-- t602 -->
<g id="node2" class="node">
<title>t602</title>
<polygon fill="#add8e6" stroke="black" points="197.5,-980 93.75,-980 93.75,-876 197.5,-876 197.5,-980"/>
<text xml:space="preserve" text-anchor="middle" x="145.62" y="-966.5" font-family="Helvetica,sans-Serif" font-size="10.00">Task 602</text>
<text xml:space="preserve" text-anchor="middle" x="145.62" y="-954.5" font-family="Helvetica,sans-Serif" font-size="10.00">Agent Selection</text>
<text xml:space="preserve" text-anchor="middle" x="145.62" y="-942.5" font-family="Helvetica,sans-Serif" font-size="10.00">─────────────</text>
<text xml:space="preserve" text-anchor="middle" x="145.62" y="-930.5" font-family="Helvetica,sans-Serif" font-size="10.00">deep&#45;code&#45;reviewer</text>
<text xml:space="preserve" text-anchor="middle" x="145.62" y="-918.5" font-family="Helvetica,sans-Serif" font-size="10.00">arch&#45;reviewer</text>
<text xml:space="preserve" text-anchor="middle" x="145.62" y="-906.5" font-family="Helvetica,sans-Serif" font-size="10.00">perf&#45;reviewer</text>
<text xml:space="preserve" text-anchor="middle" x="145.62" y="-894.5" font-family="Helvetica,sans-Serif" font-size="10.00">doc&#45;reviewer</text>
<text xml:space="preserve" text-anchor="middle" x="145.62" y="-882.5" font-family="Helvetica,sans-Serif" font-size="10.00">code&#45;refiner</text>
</g>
<!-- t601&#45;&gt;t602 -->
<g id="edge7" class="edge">
<title>t601&#45;&gt;t602</title>
<path fill="none" stroke="black" d="M84.86,-1029.53C92.1,-1017.56 100.5,-1003.65 108.71,-990.08"/>
<polygon fill="black" stroke="black" points="111.67,-991.94 113.84,-981.58 105.68,-988.32 111.67,-991.94"/>
</g>
<!-- deep -->
<g id="node3" class="node">
<title>deep</title>
<polygon fill="#ffb6c1" stroke="black" points="511,-826 404.25,-826 404.25,-782 511,-782 511,-826"/>
<text xml:space="preserve" text-anchor="middle" x="457.62" y="-812.5" font-family="Helvetica,sans-Serif" font-size="10.00">Deep Code Review</text>
<text xml:space="preserve" text-anchor="middle" x="457.62" y="-800.5" font-family="Helvetica,sans-Serif" font-size="10.00">Logic, bugs, security</text>
<text xml:space="preserve" text-anchor="middle" x="457.62" y="-788.5" font-family="Helvetica,sans-Serif" font-size="10.00">(sonnet)</text>
</g>
<!-- t602&#45;&gt;deep -->
<g id="edge8" class="edge">
<title>t602&#45;&gt;deep</title>
<path fill="none" stroke="black" d="M197.92,-886.01C203.73,-882.35 209.69,-878.92 215.62,-876 272.78,-847.86 343.14,-828.77 393.23,-817.54"/>
<polygon fill="black" stroke="black" points="393.73,-821.01 402.75,-815.45 392.23,-814.17 393.73,-821.01"/>
</g>
<!-- findings -->
<g id="node7" class="node">
<title>findings</title>
<polygon fill="#ffdab9" stroke="black" points="653,-732 546.25,-732 546.25,-676 653,-676 653,-732"/>
<text xml:space="preserve" text-anchor="middle" x="599.62" y="-718.5" font-family="Helvetica,sans-Serif" font-size="10.00">Findings Aggregation</text>
<text xml:space="preserve" text-anchor="middle" x="599.62" y="-706.5" font-family="Helvetica,sans-Serif" font-size="10.00">─────────────</text>
<text xml:space="preserve" text-anchor="middle" x="599.62" y="-694.5" font-family="Helvetica,sans-Serif" font-size="10.00">critical | major</text>
<text xml:space="preserve" text-anchor="middle" x="599.62" y="-682.5" font-family="Helvetica,sans-Serif" font-size="10.00">minor | suggestions</text>
</g>
<!-- deep&#45;&gt;findings -->
<g id="edge1" class="edge">
<title>deep&#45;&gt;findings</title>
<path fill="none" stroke="black" d="M488.44,-781.74C506.62,-769.19 530.04,-753.03 550.69,-738.77"/>
<polygon fill="black" stroke="black" points="552.47,-741.8 558.71,-733.24 548.49,-736.04 552.47,-741.8"/>
</g>
<!-- arch -->
<g id="node4" class="node">
<title>arch</title>
<polygon fill="#ffb6c1" stroke="black" points="651.88,-826 547.38,-826 547.38,-782 651.88,-782 651.88,-826"/>
<text xml:space="preserve" text-anchor="middle" x="599.62" y="-812.5" font-family="Helvetica,sans-Serif" font-size="10.00">Architecture Review</text>
<text xml:space="preserve" text-anchor="middle" x="599.62" y="-800.5" font-family="Helvetica,sans-Serif" font-size="10.00">Patterns, coupling</text>
<text xml:space="preserve" text-anchor="middle" x="599.62" y="-788.5" font-family="Helvetica,sans-Serif" font-size="10.00">(sonnet)</text>
</g>
<!-- arch&#45;&gt;findings -->
<g id="edge2" class="edge">
<title>arch&#45;&gt;findings</title>
<path fill="none" stroke="black" d="M599.62,-781.74C599.62,-770.62 599.62,-756.65 599.62,-743.7"/>
<polygon fill="black" stroke="black" points="603.13,-743.71 599.63,-733.71 596.13,-743.71 603.13,-743.71"/>
</g>
<!-- perf -->
<g id="node5" class="node">
<title>perf</title>
<polygon fill="#ffb6c1" stroke="black" points="809.12,-826 688.12,-826 688.12,-782 809.12,-782 809.12,-826"/>
<text xml:space="preserve" text-anchor="middle" x="748.62" y="-812.5" font-family="Helvetica,sans-Serif" font-size="10.00">Performance Review</text>
<text xml:space="preserve" text-anchor="middle" x="748.62" y="-800.5" font-family="Helvetica,sans-Serif" font-size="10.00">Bottlenecks, complexity</text>
<text xml:space="preserve" text-anchor="middle" x="748.62" y="-788.5" font-family="Helvetica,sans-Serif" font-size="10.00">(haiku)</text>
</g>
<!-- perf&#45;&gt;findings -->
<g id="edge3" class="edge">
<title>perf&#45;&gt;findings</title>
<path fill="none" stroke="black" d="M716.29,-781.74C697.13,-769.13 672.42,-752.88 650.68,-738.58"/>
<polygon fill="black" stroke="black" points="652.79,-735.78 642.51,-733.21 648.95,-741.63 652.79,-735.78"/>
</g>
<!-- doc -->
<g id="node6" class="node">
<title>doc</title>
<polygon fill="#ffb6c1" stroke="black" points="970,-826 845.25,-826 845.25,-782 970,-782 970,-826"/>
<text xml:space="preserve" text-anchor="middle" x="907.62" y="-812.5" font-family="Helvetica,sans-Serif" font-size="10.00">Documentation Review</text>
<text xml:space="preserve" text-anchor="middle" x="907.62" y="-800.5" font-family="Helvetica,sans-Serif" font-size="10.00">Completeness, accuracy</text>
<text xml:space="preserve" text-anchor="middle" x="907.62" y="-788.5" font-family="Helvetica,sans-Serif" font-size="10.00">(haiku)</text>
</g>
<!-- doc&#45;&gt;findings -->
<g id="edge4" class="edge">
<title>doc&#45;&gt;findings</title>
<path fill="none" stroke="black" d="M844.93,-783.05C792.27,-766.3 717.32,-742.45 664.16,-725.53"/>
<polygon fill="black" stroke="black" points="665.53,-722.3 654.94,-722.6 663.41,-728.97 665.53,-722.3"/>
</g>
<!-- scope -->
<g id="node8" class="node">
<title>scope</title>
<polygon fill="#ffd700" stroke="black" points="337.62,-626 224.12,-582 337.62,-538 451.12,-582 337.62,-626"/>
<text xml:space="preserve" text-anchor="middle" x="337.62" y="-590.5" font-family="Helvetica,sans-Serif" font-size="10.00">Scope Selection</text>
<text xml:space="preserve" text-anchor="middle" x="337.62" y="-578.5" font-family="Helvetica,sans-Serif" font-size="10.00">(human chooses:</text>
<text xml:space="preserve" text-anchor="middle" x="337.62" y="-566.5" font-family="Helvetica,sans-Serif" font-size="10.00">critical / major / minor)</text>
</g>
<!-- findings&#45;&gt;scope -->
<g id="edge9" class="edge">
<title>findings&#45;&gt;scope</title>
<path fill="none" stroke="black" d="M545.94,-682.03C527.63,-674.64 507.12,-666.09 488.62,-657.75 457.51,-643.73 423.39,-626.96 395.47,-612.86"/>
<polygon fill="black" stroke="black" points="397.33,-609.88 386.83,-608.49 394.17,-616.13 397.33,-609.88"/>
</g>
<!-- o_findings -->
<g id="node17" class="node">
<title>o_findings</title>
<polygon fill="#fffacd" stroke="black" points="750.5,-622 652.75,-622 652.75,-542 756.5,-542 756.5,-616 750.5,-622"/>
<polyline fill="none" stroke="black" points="750.5,-622 750.5,-616"/>
<polyline fill="none" stroke="black" points="756.5,-616 750.5,-616"/>
<text xml:space="preserve" text-anchor="middle" x="704.62" y="-608.5" font-family="Helvetica,sans-Serif" font-size="10.00">.claude/reviews/</text>
<text xml:space="preserve" text-anchor="middle" x="704.62" y="-596.5" font-family="Helvetica,sans-Serif" font-size="10.00">findings.json</text>
<text xml:space="preserve" text-anchor="middle" x="704.62" y="-584.5" font-family="Helvetica,sans-Serif" font-size="10.00">─────────────</text>
<text xml:space="preserve" text-anchor="middle" x="704.62" y="-572.5" font-family="Helvetica,sans-Serif" font-size="10.00">Severity counts</text>
<text xml:space="preserve" text-anchor="middle" x="704.62" y="-560.5" font-family="Helvetica,sans-Serif" font-size="10.00">Detailed issues</text>
<text xml:space="preserve" text-anchor="middle" x="704.62" y="-548.5" font-family="Helvetica,sans-Serif" font-size="10.00">Code locations</text>
</g>
<!-- findings&#45;&gt;o_findings -->
<g id="edge16" class="edge">
<title>findings&#45;&gt;o_findings</title>
<path fill="none" stroke="#4169e1" stroke-dasharray="5,2" d="M623.45,-675.77C635.09,-662.47 649.44,-646.06 662.83,-630.77"/>
<polygon fill="#4169e1" stroke="#4169e1" points="665.19,-633.38 669.14,-623.55 659.92,-628.77 665.19,-633.38"/>
</g>
<!-- kg -->
<g id="node19" class="node">
<title>kg</title>
<path fill="#dda0dd" stroke="black" d="M616.5,-600C616.5,-602.21 591.9,-604 561.62,-604 531.35,-604 506.75,-602.21 506.75,-600 506.75,-600 506.75,-564 506.75,-564 506.75,-561.79 531.35,-560 561.62,-560 591.9,-560 616.5,-561.79 616.5,-564 616.5,-564 616.5,-600 616.5,-600"/>
<path fill="none" stroke="black" d="M616.5,-600C616.5,-597.79 591.9,-596 561.62,-596 531.35,-596 506.75,-597.79 506.75,-600"/>
<text xml:space="preserve" text-anchor="middle" x="561.62" y="-584.5" font-family="Helvetica,sans-Serif" font-size="10.00">Knowledge Graph</text>
<text xml:space="preserve" text-anchor="middle" x="561.62" y="-572.5" font-family="Helvetica,sans-Serif" font-size="10.00">ReviewFinding nodes</text>
</g>
<!-- findings&#45;&gt;kg -->
<g id="edge18" class="edge">
<title>findings&#45;&gt;kg</title>
<path fill="none" stroke="#8b008b" stroke-dasharray="5,2" d="M591,-675.77C585.28,-657.7 577.75,-633.92 571.74,-614.96"/>
<polygon fill="#8b008b" stroke="#8b008b" points="575.13,-614.07 568.78,-605.59 568.46,-616.18 575.13,-614.07"/>
</g>
<!-- fix -->
<g id="node9" class="node">
<title>fix</title>
<polygon fill="#90ee90" stroke="black" points="401.88,-488 273.38,-488 273.38,-444 401.88,-444 401.88,-488"/>
<text xml:space="preserve" text-anchor="middle" x="337.62" y="-474.5" font-family="Helvetica,sans-Serif" font-size="10.00">Per&#45;Finding Fixes</text>
<text xml:space="preserve" text-anchor="middle" x="337.62" y="-462.5" font-family="Helvetica,sans-Serif" font-size="10.00">code&#45;refiner (sonnet)</text>
<text xml:space="preserve" text-anchor="middle" x="337.62" y="-450.5" font-family="Helvetica,sans-Serif" font-size="10.00">Generate + apply patches</text>
</g>
<!-- scope&#45;&gt;fix -->
<g id="edge5" class="edge">
<title>scope&#45;&gt;fix</title>
<path fill="none" stroke="black" d="M337.62,-537.58C337.62,-524.93 337.62,-511.33 337.62,-499.49"/>
<polygon fill="black" stroke="black" points="341.13,-499.83 337.63,-489.83 334.13,-499.83 341.13,-499.83"/>
</g>
<!-- verify_fix -->
<g id="node10" class="node">
<title>verify_fix</title>
<polygon fill="#90ee90" stroke="black" points="391.38,-394 283.88,-394 283.88,-358 391.38,-358 391.38,-394"/>
<text xml:space="preserve" text-anchor="middle" x="337.62" y="-378.5" font-family="Helvetica,sans-Serif" font-size="10.00">Verify Fixes</text>
<text xml:space="preserve" text-anchor="middle" x="337.62" y="-366.5" font-family="Helvetica,sans-Serif" font-size="10.00">Re&#45;run affected tests</text>
</g>
<!-- fix&#45;&gt;verify_fix -->
<g id="edge6" class="edge">
<title>fix&#45;&gt;verify_fix</title>
<path fill="none" stroke="black" d="M337.62,-443.7C337.62,-432.21 337.62,-417.88 337.62,-405.45"/>
<polygon fill="black" stroke="black" points="341.13,-405.78 337.63,-395.78 334.13,-405.78 341.13,-405.78"/>
</g>
<!-- t605 -->
<g id="node11" class="node">
<title>t605</title>
<polygon fill="#e8e8e8" stroke="black" points="441,-290 364.25,-290 364.25,-246 441,-246 441,-290"/>
<text xml:space="preserve" text-anchor="middle" x="402.62" y="-276.5" font-family="Helvetica,sans-Serif" font-size="10.00">Task 605</text>
<text xml:space="preserve" text-anchor="middle" x="402.62" y="-264.5" font-family="Helvetica,sans-Serif" font-size="10.00">Phase Audit</text>
<text xml:space="preserve" text-anchor="middle" x="402.62" y="-252.5" font-family="Helvetica,sans-Serif" font-size="10.00">(non&#45;blocking)</text>
</g>
<!-- verify_fix&#45;&gt;t605 -->
<g id="edge10" class="edge">
<title>verify_fix&#45;&gt;t605</title>
<path fill="none" stroke="black" d="M348.07,-357.97C357.62,-342.39 371.98,-318.97 383.58,-300.06"/>
<polygon fill="black" stroke="black" points="386.48,-302.03 388.72,-291.67 380.51,-298.37 386.48,-302.03"/>
</g>
<!-- o_refine -->
<g id="node18" class="node">
<title>o_refine</title>
<polygon fill="#fffacd" stroke="black" points="321.88,-308 217.38,-308 217.38,-228 327.88,-228 327.88,-302 321.88,-308"/>
<polyline fill="none" stroke="black" points="321.88,-308 321.88,-302"/>
<polyline fill="none" stroke="black" points="327.88,-302 321.88,-302"/>
<text xml:space="preserve" text-anchor="middle" x="272.62" y="-294.5" font-family="Helvetica,sans-Serif" font-size="10.00">.claude/reviews/</text>
<text xml:space="preserve" text-anchor="middle" x="272.62" y="-282.5" font-family="Helvetica,sans-Serif" font-size="10.00">refinement&#45;report.json</text>
<text xml:space="preserve" text-anchor="middle" x="272.62" y="-270.5" font-family="Helvetica,sans-Serif" font-size="10.00">─────────────</text>
<text xml:space="preserve" text-anchor="middle" x="272.62" y="-258.5" font-family="Helvetica,sans-Serif" font-size="10.00">Patches applied</text>
<text xml:space="preserve" text-anchor="middle" x="272.62" y="-246.5" font-family="Helvetica,sans-Serif" font-size="10.00">Tests verified</text>
<text xml:space="preserve" text-anchor="middle" x="272.62" y="-234.5" font-family="Helvetica,sans-Serif" font-size="10.00">Remaining issues</text>
</g>
<!-- verify_fix&#45;&gt;o_refine -->
<g id="edge17" class="edge">
<title>verify_fix&#45;&gt;o_refine</title>
<path fill="none" stroke="#4169e1" stroke-dasharray="5,2" d="M327.18,-357.97C320.53,-347.13 311.55,-332.48 302.8,-318.21"/>
<polygon fill="#4169e1" stroke="#4169e1" points="305.81,-316.42 297.6,-309.73 299.84,-320.08 305.81,-316.42"/>
</g>
<!-- t606 -->
<g id="node12" class="node">
<title>t606</title>
<polygon fill="#e8e8e8" stroke="black" points="527.88,-178 423.38,-178 423.38,-86 527.88,-86 527.88,-178"/>
<text xml:space="preserve" text-anchor="middle" x="475.62" y="-164.5" font-family="Helvetica,sans-Serif" font-size="10.00">Task 606</text>
<text xml:space="preserve" text-anchor="middle" x="475.62" y="-152.5" font-family="Helvetica,sans-Serif" font-size="10.00">Closeout</text>
<text xml:space="preserve" text-anchor="middle" x="475.62" y="-140.5" font-family="Helvetica,sans-Serif" font-size="10.00">─────────────</text>
<text xml:space="preserve" text-anchor="middle" x="475.62" y="-128.5" font-family="Helvetica,sans-Serif" font-size="10.00">Memory checkpoint:</text>
<text xml:space="preserve" text-anchor="middle" x="475.62" y="-116.5" font-family="Helvetica,sans-Serif" font-size="10.00">critical found/fixed</text>
<text xml:space="preserve" text-anchor="middle" x="475.62" y="-104.5" font-family="Helvetica,sans-Serif" font-size="10.00">major issues</text>
<text xml:space="preserve" text-anchor="middle" x="475.62" y="-92.5" font-family="Helvetica,sans-Serif" font-size="10.00">tests passing</text>
</g>
<!-- t605&#45;&gt;t606 -->
<g id="edge11" class="edge">
<title>t605&#45;&gt;t606</title>
<path fill="none" stroke="black" d="M414.19,-245.77C422.62,-230.3 434.44,-208.6 445.47,-188.36"/>
<polygon fill="black" stroke="black" points="448.53,-190.05 450.24,-179.59 442.38,-186.7 448.53,-190.05"/>
</g>
<!-- next -->
<g id="node24" class="node">
<title>next</title>
<polygon fill="#b3d9ff" stroke="black" stroke-width="2" points="533.88,-36 417.38,-36 417.38,0 533.88,0 533.88,-36"/>
<text xml:space="preserve" text-anchor="middle" x="475.62" y="-14.5" font-family="Helvetica,sans-Serif" font-size="10.00">→ Phase 7: Integration</text>
</g>
<!-- t606&#45;&gt;next -->
<g id="edge23" class="edge">
<title>t606&#45;&gt;next</title>
<path fill="none" stroke="black" d="M475.62,-85.77C475.62,-72.88 475.62,-59.2 475.62,-47.61"/>
<polygon fill="black" stroke="black" points="479.13,-47.91 475.63,-37.91 472.13,-47.91 479.13,-47.91"/>
</g>
<!-- i_src -->
<g id="node13" class="node">
<title>i_src</title>
<polygon fill="#fffacd" stroke="black" points="307.88,-950 233.38,-950 233.38,-906 313.88,-906 313.88,-944 307.88,-950"/>
<polyline fill="none" stroke="black" points="307.88,-950 307.88,-944"/>
<polyline fill="none" stroke="black" points="313.88,-944 307.88,-944"/>
<text xml:space="preserve" text-anchor="middle" x="273.62" y="-936.5" font-family="Helvetica,sans-Serif" font-size="10.00">Source code</text>
<text xml:space="preserve" text-anchor="middle" x="273.62" y="-924.5" font-family="Helvetica,sans-Serif" font-size="10.00">+ test files</text>
<text xml:space="preserve" text-anchor="middle" x="273.62" y="-912.5" font-family="Helvetica,sans-Serif" font-size="10.00">(from Phase 5)</text>
</g>
<!-- i_src&#45;&gt;deep -->
<g id="edge12" class="edge">
<title>i_src&#45;&gt;deep</title>
<path fill="none" stroke="#666666" stroke-dasharray="1,5" d="M296.31,-905.55C306.94,-895.99 320.02,-884.9 332.62,-876 355.54,-859.83 382.42,-844.17 405.37,-831.7"/>
<polygon fill="#666666" stroke="#666666" points="406.79,-834.91 413.94,-827.09 403.48,-828.74 406.79,-834.91"/>
</g>
<!-- i_tdd -->
<g id="node14" class="node">
<title>i_tdd</title>
<polygon fill="#fffacd" stroke="black" points="435.12,-946 350.12,-946 350.12,-910 441.12,-910 441.12,-940 435.12,-946"/>
<polyline fill="none" stroke="black" points="435.12,-946 435.12,-940"/>
<polyline fill="none" stroke="black" points="441.12,-940 435.12,-940"/>
<text xml:space="preserve" text-anchor="middle" x="395.62" y="-930.5" font-family="Helvetica,sans-Serif" font-size="10.00">.claude/testing/</text>
<text xml:space="preserve" text-anchor="middle" x="395.62" y="-918.5" font-family="Helvetica,sans-Serif" font-size="10.00">tdd&#45;progress.json</text>
</g>
<!-- i_tdd&#45;&gt;deep -->
<g id="edge13" class="edge">
<title>i_tdd&#45;&gt;deep</title>
<path fill="none" stroke="#666666" stroke-dasharray="1,5" d="M404.51,-909.52C414.21,-890.44 429.93,-859.5 441.76,-836.22"/>
<polygon fill="#666666" stroke="#666666" points="444.79,-837.99 446.2,-827.48 438.55,-834.81 444.79,-837.99"/>
</g>
<!-- llm_sonnet -->
<g id="node15" class="node">
<title>llm_sonnet</title>
<ellipse fill="#98fb98" stroke="black" cx="537.62" cy="-928" rx="60.63" ry="31.11"/>
<text xml:space="preserve" text-anchor="middle" x="537.62" y="-936.5" font-family="Helvetica,sans-Serif" font-size="10.00">sonnet</text>
<text xml:space="preserve" text-anchor="middle" x="537.62" y="-924.5" font-family="Helvetica,sans-Serif" font-size="10.00">deep&#45;code, arch</text>
<text xml:space="preserve" text-anchor="middle" x="537.62" y="-912.5" font-family="Helvetica,sans-Serif" font-size="10.00">code&#45;refiner</text>
</g>
<!-- llm_sonnet&#45;&gt;deep -->
<g id="edge14" class="edge">
<title>llm_sonnet&#45;&gt;deep</title>
<path fill="none" stroke="#228b22" stroke-dasharray="5,2" d="M518.67,-898.09C506.39,-879.37 490.42,-855.01 477.89,-835.9"/>
<polygon fill="#228b22" stroke="#228b22" points="480.93,-834.16 472.52,-827.72 475.08,-838 480.93,-834.16"/>
</g>
<!-- llm_haiku -->
<g id="node16" class="node">
<title>llm_haiku</title>
<ellipse fill="#98fb98" stroke="black" cx="811.62" cy="-928" rx="38.36" ry="22.63"/>
<text xml:space="preserve" text-anchor="middle" x="811.62" y="-930.5" font-family="Helvetica,sans-Serif" font-size="10.00">haiku</text>
<text xml:space="preserve" text-anchor="middle" x="811.62" y="-918.5" font-family="Helvetica,sans-Serif" font-size="10.00">perf, doc</text>
</g>
<!-- llm_haiku&#45;&gt;perf -->
<g id="edge15" class="edge">
<title>llm_haiku&#45;&gt;perf</title>
<path fill="none" stroke="#228b22" stroke-dasharray="5,2" d="M800.79,-906.03C790.88,-886.82 776.07,-858.14 764.76,-836.24"/>
<polygon fill="#228b22" stroke="#228b22" points="767.92,-834.73 760.22,-827.45 761.7,-837.94 767.92,-834.73"/>
</g>
<!-- h602 -->
<g id="node20" class="node">
<title>h602</title>
<polygon fill="#ffd700" stroke="black" points="290.39,-1053.86 290.39,-1074.14 253.62,-1088.49 201.63,-1088.49 164.86,-1074.14 164.86,-1053.86 201.63,-1039.51 253.62,-1039.51 290.39,-1053.86"/>
<text xml:space="preserve" text-anchor="middle" x="227.62" y="-1066.5" font-family="Helvetica,sans-Serif" font-size="10.00">Human:</text>
<text xml:space="preserve" text-anchor="middle" x="227.62" y="-1054.5" font-family="Helvetica,sans-Serif" font-size="10.00">agent selection</text>
</g>
<!-- h602&#45;&gt;t602 -->
<g id="edge19" class="edge">
<title>h602&#45;&gt;t602</title>
<path fill="none" stroke="#cc0000" stroke-dasharray="5,2" d="M212.97,-1039.04C204.53,-1025.26 193.52,-1007.26 182.85,-989.83"/>
<polygon fill="#cc0000" stroke="#cc0000" points="185.97,-988.22 177.76,-981.52 180,-991.88 185.97,-988.22"/>
</g>
<!-- h604 -->
<g id="node21" class="node">
<title>h604</title>
<polygon fill="#ffd700" stroke="black" points="388.27,-693.86 388.27,-714.14 347.47,-728.49 289.78,-728.49 248.98,-714.14 248.98,-693.86 289.78,-679.51 347.47,-679.51 388.27,-693.86"/>
<text xml:space="preserve" text-anchor="middle" x="318.62" y="-706.5" font-family="Helvetica,sans-Serif" font-size="10.00">Human:</text>
<text xml:space="preserve" text-anchor="middle" x="318.62" y="-694.5" font-family="Helvetica,sans-Serif" font-size="10.00">refinement scope</text>
</g>
<!-- h604&#45;&gt;scope -->
<g id="edge20" class="edge">
<title>h604&#45;&gt;scope</title>
<path fill="none" stroke="#cc0000" stroke-dasharray="5,2" d="M322.38,-679.29C324.4,-666.54 326.97,-650.29 329.43,-634.78"/>
<polygon fill="#cc0000" stroke="#cc0000" points="332.84,-635.6 330.95,-625.17 325.93,-634.5 332.84,-635.6"/>
</g>
<!-- h606 -->
<g id="node22" class="node">
<title>h606</title>
<polygon fill="#ffd700" stroke="black" points="622.72,-257.86 622.72,-278.14 579.9,-292.49 519.35,-292.49 476.53,-278.14 476.53,-257.86 519.35,-243.51 579.9,-243.51 622.72,-257.86"/>
<text xml:space="preserve" text-anchor="middle" x="549.62" y="-270.5" font-family="Helvetica,sans-Serif" font-size="10.00">HUMAN GATE</text>
<text xml:space="preserve" text-anchor="middle" x="549.62" y="-258.5" font-family="Helvetica,sans-Serif" font-size="10.00">Closeout Approval</text>
</g>
<!-- h606&#45;&gt;t606 -->
<g id="edge21" class="edge">
<title>h606&#45;&gt;t606</title>
<path fill="none" stroke="#cc0000" stroke-dasharray="5,2" d="M536.4,-243.04C527.97,-227.79 516.69,-207.37 506.14,-188.26"/>
<polygon fill="#cc0000" stroke="#cc0000" points="509.34,-186.81 501.44,-179.75 503.21,-190.19 509.34,-186.81"/>
</g>
<!-- ts -->
<g id="node23" class="node">
<title>ts</title>
<polygon fill="#e0ffe0" stroke="black" points="737.12,-956 634.12,-956 634.12,-952 630.12,-952 630.12,-948 634.12,-948 634.12,-908 630.12,-908 630.12,-904 634.12,-904 634.12,-900 737.12,-900 737.12,-956"/>
<polyline fill="none" stroke="black" points="634.12,-952 638.12,-952 638.12,-948 634.12,-948"/>
<polyline fill="none" stroke="black" points="634.12,-908 638.12,-908 638.12,-904 634.12,-904"/>
<text xml:space="preserve" text-anchor="middle" x="685.62" y="-942.5" font-family="Helvetica,sans-Serif" font-size="10.00">TeamSession</text>
<text xml:space="preserve" text-anchor="middle" x="685.62" y="-930.5" font-family="Helvetica,sans-Serif" font-size="10.00">(tmux/threads)</text>
<text xml:space="preserve" text-anchor="middle" x="685.62" y="-918.5" font-family="Helvetica,sans-Serif" font-size="10.00">4 agents in parallel</text>
<text xml:space="preserve" text-anchor="middle" x="685.62" y="-906.5" font-family="Helvetica,sans-Serif" font-size="10.00">Fallback: sequential</text>
</g>
<!-- ts&#45;&gt;deep -->
<g id="edge22" class="edge">
<title>ts&#45;&gt;deep</title>
<path fill="none" stroke="#666666" stroke-dasharray="1,5" d="M654.44,-899.53C643.18,-890.85 629.94,-881.97 616.62,-876 580.58,-859.83 565.71,-873.84 529.62,-857.75 515.78,-851.57 502,-842.41 490.26,-833.45"/>
<polygon fill="#666666" stroke="#666666" points="492.51,-830.77 482.5,-827.31 488.17,-836.26 492.51,-830.77"/>
</g>
</g>
</svg>
